<svg width="97" height="90" viewBox="0 0 97 90" fill="none" xmlns="http://www.w3.org/2000/svg">
<g clip-path="url(#clip0_1_9)">
<path d="M97 36.8233C97 24.4107 86.8864 14.3444 74.4156 14.3444C74.338 14.3444 74.2674 14.3444 74.1968 14.3444C68.833 6.33625 59.6793 1.0537 49.2834 1.0537C38.8875 1.0537 29.642 6.39244 24.2994 14.4708C12.9578 15.665 4.12166 25.2115 4.12166 36.8233C4.12166 48.4351 12.0827 56.9911 22.5844 58.9229V70.7173H76.6882V59.1898C88.0933 58.0518 97 48.4772 97 36.8233Z" fill="white"/>
<path d="M24.9134 83.4038C19.3097 78.8097 22.3586 58.8316 22.3586 58.8316C22.3586 58.8316 44.0819 64.0579 78.2126 58.8316C78.2126 58.8316 83.5623 78.2618 73.1593 84.8509C64.7467 90.1826 34.053 90.9062 24.9064 83.4038H24.9134Z" fill="white"/>
<path d="M93.944 36.8233C93.944 24.4107 83.8305 14.3444 71.3596 14.3444C71.282 14.3444 71.2114 14.3444 71.1409 14.3444C65.7771 6.33625 56.6233 1.0537 46.2274 1.0537C35.8316 1.0537 26.5861 6.39245 21.2435 14.4708C9.89479 15.665 1.05865 25.2115 1.05865 36.8233C1.05865 47.7537 8.89967 56.8576 19.2885 58.8737C19.1615 59.7167 16.3666 78.9151 21.8504 83.4109C30.9971 90.9062 61.6836 90.1826 70.1034 84.858C80.0194 78.5779 75.6295 60.651 75.1919 58.9791C85.8419 57.1667 93.944 47.9433 93.944 36.8303V36.8233Z" stroke="#414042" stroke-width="3" stroke-miterlimit="10" stroke-linecap="round"/>
<path d="M19.4791 58.0589C19.4791 58.0589 19.6343 58.101 19.9237 58.1783C20.213 58.2485 20.6436 58.389 21.1799 58.5014C21.7163 58.6208 22.3727 58.7683 23.1137 58.9299C23.4878 59.0142 23.8901 59.0985 24.3065 59.1898C24.737 59.2601 25.1887 59.3303 25.6615 59.4076C26.6073 59.5621 27.6306 59.7237 28.7104 59.8993C29.2539 59.9766 29.8044 60.096 30.376 60.1452C30.9477 60.2014 31.5335 60.2576 32.1334 60.3138C33.3261 60.4262 34.5612 60.5526 35.8104 60.672C36.4385 60.7352 37.0667 60.7914 37.7018 60.8547C38.3088 60.9038 38.9793 60.9179 39.6145 60.953C40.8989 61.0022 42.1905 61.0935 43.4467 61.1005C44.703 61.1076 45.9451 61.1216 47.1449 61.1286C48.3447 61.1637 49.5092 61.0795 50.6102 61.0584C51.7112 61.0233 52.7558 60.9952 53.7156 60.9671C57.562 60.7001 60.1239 60.5245 60.1239 60.5245H60.138C60.2862 60.5105 60.4133 60.6229 60.4274 60.7704C60.4344 60.9179 60.3286 61.0443 60.1874 61.0584C60.1874 61.0584 57.6255 61.3323 53.7791 61.7468C52.8122 61.81 51.7677 61.8873 50.6596 61.9575C49.5516 62.0208 48.3871 62.1472 47.1732 62.1613C45.9593 62.1964 44.703 62.2315 43.4326 62.2737C42.1552 62.3158 40.8778 62.2737 39.5862 62.2737C38.9369 62.2666 38.3088 62.2736 37.6454 62.2456C37.0031 62.2104 36.3609 62.1683 35.7257 62.1332C34.4553 62.0559 33.1991 61.9856 31.9852 61.9154C31.3782 61.8803 30.7783 61.8451 30.1996 61.81C29.6138 61.7819 29.0492 61.6836 28.4916 61.6204C27.3836 61.4799 26.332 61.3534 25.3722 61.234C24.8852 61.1708 24.4264 61.1146 23.9818 61.0654C23.5372 60.9881 23.1208 60.9109 22.7256 60.8406C21.9351 60.6931 21.2505 60.5667 20.6788 60.4683C20.1072 60.37 19.6908 60.2576 19.3873 60.1873C19.0909 60.1171 18.9356 60.082 18.9356 60.082C18.3639 59.9485 18.0111 59.3795 18.1452 58.8175C18.2793 58.2555 18.8509 57.8973 19.4155 58.0308C19.4296 58.0308 19.4367 58.0308 19.4508 58.0378H19.472L19.4791 58.0589Z" fill="#414042"/>
<path d="M19.5073 63.3836C19.5073 63.3836 19.592 63.4116 19.7543 63.4608C19.9096 63.51 20.1566 63.6013 20.4389 63.6716C20.7283 63.7488 21.0882 63.8472 21.4905 63.9525C21.8928 64.072 22.3586 64.1844 22.8879 64.2827C23.4101 64.3881 23.9677 64.5075 24.5676 64.6339C25.1604 64.7744 25.7956 64.8587 26.459 64.95C27.1225 65.0414 27.8 65.1397 28.4987 65.2381C28.8445 65.2872 29.1974 65.3364 29.5503 65.3856C29.8749 65.4277 30.256 65.4558 30.6089 65.4909C31.3217 65.5471 32.0487 65.6385 32.7474 65.6666C33.4461 65.7017 34.1377 65.7368 34.8012 65.779C35.4646 65.8281 36.1209 65.8071 36.7349 65.8281C37.349 65.8352 37.9347 65.8422 38.4711 65.8562C40.6237 65.8071 42.0564 65.7719 42.0564 65.7719H42.0705C42.2187 65.7719 42.3458 65.8843 42.3458 66.0318C42.3458 66.1723 42.2399 66.2918 42.0987 66.3058C42.0987 66.3058 40.659 66.4393 38.4994 66.643C37.9559 66.6711 37.3701 66.7062 36.7491 66.7343C36.128 66.7624 35.4716 66.8186 34.787 66.8186C34.1025 66.8256 33.3967 66.8397 32.6839 66.8467C31.964 66.8608 31.2512 66.8256 30.5313 66.8116C30.1643 66.7975 29.8255 66.8046 29.4374 66.7835C29.0774 66.7554 28.7175 66.7273 28.3575 66.7062C27.6447 66.657 26.939 66.6008 26.2544 66.5517C25.5698 66.5025 24.9134 66.4604 24.2924 66.355C23.6713 66.2707 23.0784 66.1864 22.535 66.1091C21.9916 66.0389 21.4905 65.9616 21.0388 65.8633C20.5942 65.7719 20.1989 65.6947 19.8813 65.6314C19.5496 65.5682 19.3238 65.505 19.1544 65.4629C18.9921 65.4207 18.9003 65.3996 18.9003 65.3996C18.3287 65.2591 17.9899 64.6831 18.131 64.1211C18.2722 63.5592 18.8509 63.215 19.4155 63.3555C19.4367 63.3555 19.4579 63.3695 19.4861 63.3765H19.5073V63.3836Z" fill="#414042"/>
<path d="M24.1724 35.7836C24.1724 35.7836 24.3559 35.9944 24.6664 36.3948C24.9911 36.7882 25.4286 37.3642 25.9438 38.0526C26.4731 38.741 27.0307 39.577 27.6588 40.455C27.9553 40.9046 28.2587 41.3753 28.5693 41.853C28.8727 42.3306 29.2045 42.8083 29.4868 43.3071C29.7832 43.8058 30.0725 44.3046 30.3619 44.7893C30.5031 45.0351 30.6513 45.281 30.7924 45.5198C30.9195 45.7657 31.0465 46.0115 31.1735 46.2504C31.6605 47.2198 32.1687 48.0979 32.5074 48.9057C33.1991 50.5144 33.6649 51.5821 33.6649 51.5821C33.8978 52.116 33.6437 52.7412 33.1073 52.966C32.5709 53.1978 31.9499 52.9519 31.717 52.411C31.7099 52.397 31.7029 52.3829 31.6958 52.3618L31.6676 52.2776C31.6676 52.2776 31.2794 51.2379 30.7007 49.6714C30.4184 48.8846 29.9737 48.0066 29.5503 47.0442C29.4444 46.8053 29.3315 46.5595 29.2186 46.3136C29.0915 46.0748 28.9645 45.8289 28.8445 45.583C28.5904 45.0913 28.3293 44.5926 28.0682 44.0938C27.8212 43.588 27.5247 43.1104 27.2495 42.6257C26.9742 42.148 26.699 41.6703 26.4379 41.2137C25.8662 40.3216 25.3651 39.4716 24.8852 38.7761C24.4194 38.0667 24.0171 37.4906 23.7348 37.0973C23.4525 36.6968 23.276 36.465 23.276 36.465C23.0855 36.2121 23.1278 35.8539 23.3819 35.6642C23.6219 35.4816 23.9677 35.5167 24.1653 35.7415L24.1794 35.7555L24.1724 35.7836Z" fill="#414042"/>
<path d="M71.5008 36.3105C71.5008 36.3105 71.3244 36.5423 71.0491 36.9497C70.7668 37.3501 70.3716 37.9402 69.9128 38.6567C69.44 39.3662 68.953 40.2302 68.3955 41.1294C68.1414 41.593 67.8732 42.0707 67.5979 42.5554C67.3297 43.0401 67.0404 43.5318 66.8004 44.0376C66.5464 44.5434 66.2993 45.0492 66.0523 45.5409C65.9253 45.7868 65.8053 46.0326 65.6853 46.2785C65.5795 46.5243 65.4736 46.7772 65.3677 47.0161C64.9654 47.9855 64.5279 48.8706 64.2597 49.6644C63.7021 51.2379 63.3351 52.2916 63.3351 52.2916L63.3069 52.3689C63.1163 52.9168 62.5094 53.2118 61.9518 53.0151C61.4013 52.8255 61.1049 52.2213 61.3025 51.6734C61.3096 51.6453 61.3237 51.6172 61.3378 51.5891C61.3378 51.5891 61.8177 50.5284 62.5376 48.9338C62.8905 48.133 63.4128 47.2619 63.9139 46.2996C64.0409 46.0607 64.175 45.8219 64.302 45.569C64.4502 45.3302 64.5914 45.0913 64.7396 44.8455C65.036 44.3608 65.3324 43.869 65.6359 43.3773C65.9253 42.8785 66.2641 42.4079 66.5746 41.9372C66.8922 41.4666 67.2027 41.01 67.5062 40.5604C68.1484 39.6964 68.713 38.8675 69.2494 38.1931C69.7717 37.5117 70.2163 36.9497 70.541 36.5634C70.8586 36.17 71.0491 35.9593 71.0491 35.9593H71.0562C71.162 35.8398 71.3385 35.8258 71.4514 35.9312C71.5573 36.0295 71.5714 36.1911 71.4867 36.3035L71.5008 36.3105Z" fill="#414042"/>
<path d="M47.4625 51.1325C47.4625 51.1325 47.3778 50.7673 47.2508 50.0718C47.1096 49.3834 46.9473 48.3999 46.7709 47.2338C46.5733 46.0677 46.4533 44.6909 46.2698 43.2228C46.2133 42.4852 46.1569 41.7265 46.1004 40.9538C46.0439 40.1811 45.9663 39.4013 45.9663 38.6076C45.9451 37.8208 45.931 37.034 45.9099 36.2613C45.9099 35.875 45.8816 35.4886 45.8887 35.1093C45.9028 34.7299 45.9169 34.3576 45.931 33.9853C45.9593 33.2477 45.9875 32.5382 46.0157 31.8639C46.0369 31.1895 46.0581 30.5503 46.1498 29.9672C46.4251 27.628 46.6086 26.0615 46.6086 26.0615C46.6368 25.8367 46.8344 25.6822 47.0602 25.7103C47.272 25.7384 47.4343 25.921 47.4202 26.1388V26.1739C47.4202 26.1739 47.3214 27.7193 47.1661 30.0304C47.1096 30.6065 47.1167 31.2317 47.1308 31.899C47.1379 32.5593 47.152 33.2618 47.159 33.9853C47.159 34.3436 47.1661 34.7159 47.1732 35.0882C47.1873 35.4605 47.2296 35.8398 47.2508 36.2192C47.3073 36.9778 47.3708 37.7505 47.4272 38.5162C47.4696 39.289 47.5825 40.0546 47.6813 40.8063C47.7801 41.5579 47.8719 42.3025 47.9636 43.019C48.2177 44.4451 48.4153 45.7797 48.6623 46.9107C48.8952 48.0417 49.0999 48.983 49.2622 49.6222C49.4104 50.2615 49.5234 50.6478 49.5234 50.6478C49.6857 51.2098 49.361 51.7929 48.8035 51.9544C48.2389 52.116 47.6531 51.7929 47.4908 51.2379C47.4908 51.2239 47.4837 51.2098 47.4766 51.1887L47.4625 51.1466V51.1325Z" fill="#414042"/>
<path d="M21.06 13.4312C21.06 13.4312 21.1305 13.4241 21.2505 13.4101C21.4058 13.389 21.5822 13.389 21.8081 13.375C22.2597 13.375 22.8949 13.4031 23.6289 13.5365C23.9889 13.6138 24.3912 13.6911 24.7934 13.8245C24.9911 13.8878 25.2028 13.958 25.4145 14.0283C25.6192 14.1126 25.8239 14.2039 26.0356 14.2882C26.4661 14.4497 26.8613 14.7096 27.2848 14.9204C27.68 15.1803 28.0964 15.4332 28.4705 15.7282C28.8304 16.0373 29.2327 16.3113 29.5503 16.6485C29.8749 16.9856 30.2278 17.2807 30.5031 17.6249C30.7854 17.9621 31.0535 18.2852 31.3147 18.6013C31.5405 18.9315 31.7593 19.2406 31.9569 19.5286C32.1616 19.8096 32.331 20.0765 32.4651 20.3294C32.6062 20.5752 32.7262 20.786 32.825 20.9616C33.0226 21.3128 33.1356 21.5095 33.1356 21.5095C33.2838 21.7765 33.192 22.1066 32.9309 22.2612C32.6768 22.4017 32.3592 22.3244 32.2039 22.0926L32.1757 22.0504C32.1757 22.0504 32.0557 21.8678 31.844 21.5517C31.7381 21.3901 31.6111 21.2004 31.4629 20.9827C31.3217 20.7579 31.1453 20.512 30.9336 20.2662C30.7289 20.0133 30.5101 19.7393 30.2772 19.4513C30.0231 19.1844 29.7549 18.9034 29.4726 18.6154C29.2045 18.3133 28.8657 18.0745 28.5552 17.7935C28.2517 17.5055 27.8776 17.3017 27.5389 17.0489C27.193 16.817 26.819 16.6274 26.4661 16.4237C26.085 16.2691 25.7392 16.0654 25.3651 15.96C25.1816 15.8968 25.0052 15.8336 24.8287 15.7774C24.6523 15.7352 24.4758 15.6931 24.3065 15.651C23.9677 15.5596 23.643 15.5245 23.3396 15.4824C22.7397 15.4121 22.2456 15.4332 21.9069 15.4543C21.7445 15.4753 21.6104 15.4824 21.554 15.4964C21.4693 15.5105 21.427 15.5175 21.427 15.5175H21.3775C20.8059 15.6299 20.2483 15.2505 20.1425 14.6815C20.0366 14.1055 20.4177 13.5576 20.9894 13.4522C21.0106 13.4522 21.0388 13.4452 21.06 13.4382V13.4312Z" fill="#414042"/>
<path d="M71.1197 15.3981C71.1197 15.3981 71.0915 15.3981 71.0279 15.3981C70.9856 15.3981 70.9009 15.3981 70.788 15.391C70.5692 15.391 70.2375 15.391 69.8423 15.4402C69.447 15.4753 68.9812 15.5526 68.4872 15.658C68.0002 15.7774 67.478 15.9179 66.9769 16.1216C66.7228 16.2059 66.4758 16.3323 66.2358 16.4377C65.9888 16.5361 65.763 16.6836 65.5371 16.796C65.3042 16.9084 65.1137 17.0629 64.909 17.1823C64.7043 17.3017 64.5349 17.4422 64.3726 17.5617C64.0338 17.8005 63.7868 18.0323 63.6033 18.1939C63.4269 18.3554 63.321 18.4468 63.321 18.4468L63.2857 18.4749C63.0669 18.6716 62.7282 18.6505 62.5306 18.4327C62.3471 18.229 62.3471 17.9199 62.5306 17.7232C62.5306 17.7232 62.6294 17.6108 62.8058 17.4141C62.9823 17.2175 63.2293 16.9294 63.568 16.6204C63.7374 16.4658 63.9139 16.2902 64.1185 16.1286C64.3232 15.9671 64.5279 15.7774 64.7749 15.6158C65.0149 15.4543 65.2478 15.2716 65.5159 15.1241C65.7771 14.9696 66.0382 14.801 66.3205 14.6675C66.871 14.3725 67.4427 14.1406 67.9932 13.944C68.5437 13.7543 69.073 13.6068 69.5388 13.5084C69.9975 13.4031 70.3928 13.3539 70.6821 13.3188C70.8233 13.3047 70.9362 13.2907 71.035 13.2907C71.1126 13.2907 71.155 13.2907 71.155 13.2907C71.7408 13.2626 72.2419 13.7051 72.2701 14.2882C72.2983 14.8712 71.8537 15.37 71.2679 15.3981C71.2256 15.3981 71.1903 15.3981 71.1479 15.3981H71.1268H71.1197Z" fill="#414042"/>
</g>
<defs>
<clipPath id="clip0_1_9">
<rect width="97" height="90" fill="white"/>
</clipPath>
</defs>
</svg>
